<?xml version="1.0" encoding="UTF-8"?>
<!DOCTYPE svg PUBLIC "-//W3C//DTD SVG 1.1//EN"
  "http://www.w3.org/Graphics/SVG/1.1/DTD/svg11.dtd" [
    <!ENTITY fill_color "#FFFFFF">
    <!ENTITY stroke_color "#000000">
]>
<svg xmlns="http://www.w3.org/2000/svg" width="50" height="50">
  <metadata>
    <rdf:RDF xmlns:cc="http://web.resource.org/cc/" xmlns:dc="http://purl.org/dc/elements/1.1/" xmlns:rdf="http://www.w3.org/1999/02/22-rdf-syntax-ns#">
      <cc:Work rdf:about="">
        <dc:creator>
          <cc:Agent>
            <dc:title>Sérgio Luiz Araújo Silva</dc:title>
          </cc:Agent>
        </dc:creator>
        <dc:rights>
          <cc:Agent>
            <dc:title>Sérgio Luiz Araújo Silva</dc:title>
          </cc:Agent>
        </dc:rights>
        <dc:date></dc:date>
      </cc:Work>
      <cc:License rdf:about="http://web.resource.org/cc/PublicDomain">
        <cc:permits rdf:resource="http://web.resource.org/cc/Reproduction"/>
        <cc:permits rdf:resource="http://web.resource.org/cc/Distribution"/>
        <cc:permits rdf:resource="http://web.resource.org/cc/DerivativeWorks"/>
      </cc:License>
    </rdf:RDF>
  </metadata>
  <path
     d="M 11.504022,30.960125 L 14.2004,25.741484 C 14.805965,25.780057 15.407927,25.757695 15.996739,25.667646 L 19.180648,30.603347 L 22.068569,29.256688 L 20.288189,23.669889 C 20.737863,23.275702 21.142403,22.826415 21.50368,22.335907 L 27.243508,23.574948 L 28.332633,20.582597 L 23.125493,17.892705 C 23.165173,17.28242 23.142981,16.675959 23.052027,16.082653 L 27.975862,12.905959 L 26.629192,10.018034 L 21.054833,11.796021 C 20.65841,11.343671 20.208747,10.934309 19.714911,10.57143 L 20.949506,4.8438454 L 17.955104,3.7539766 L 15.269489,8.9557444 C 14.657759,8.9166004 14.050458,8.9404694 13.455905,9.0325454 L 10.280518,4.1114913 L 7.3925907,5.4581594 L 9.1690857,11.036598 C 8.7192861,11.432281 8.3130403,11.882425 7.9521107,12.374668 L 2.2163615,11.137109 L 1.1264874,14.131507 L 6.337712,16.822885 C 6.299694,17.429801 6.3257814,18.033513 6.4169314,18.623484 L 1.4840122,21.806099 L 2.8306732,24.694024 L 8.4222816,22.913085 C 8.8156416,23.360235 9.2628223,23.762882 9.7516333,24.122259 L 8.5116571,29.870994 L 11.504022,30.960125 z M 10.594703,15.852078 C 11.425448,13.569645 13.952085,12.391449 16.234531,13.222189 C 18.516968,14.052932 19.695163,16.579572 18.864419,18.862017 C 18.033682,21.14446 15.507037,22.322653 13.2246,21.491907 C 10.942157,20.661168 9.7639601,18.134524 10.594703,15.852078 z "
     style="fill:&fill_color;;fill-opacity:1.0000000;fill-rule:evenodd;stroke:&stroke_color;;stroke-width:2.1250000;stroke-linecap:round;stroke-linejoin:round;stroke-miterlimit:4.0000000;stroke-opacity:1.0000000;"/>
  <path
     d="M 31.549365,42.683675 L 34.245751,37.465033 C 34.851318,37.503611 35.453267,37.481251 36.042081,37.391198 L 39.225996,42.326896 L 42.113915,40.980233 L 40.333535,35.393445 C 40.783204,34.999253 41.187744,34.54996 41.549024,34.059457 L 47.28885,35.298501 L 48.37798,32.306144 L 43.170835,29.616258 C 43.210522,29.00597 43.188332,28.399506 43.097372,27.806196 L 48.021203,24.629517 L 46.674545,21.741585 L 41.10018,23.519569 C 40.703756,23.067227 40.254106,22.657857 39.760261,22.294985 L 40.994853,16.5674 L 38.000455,15.477527 L 35.314836,20.679293 C 34.703103,20.640139 34.095801,20.664023 33.501254,20.756094 L 30.325866,15.835049 L 27.437939,17.181707 L 29.214434,22.760147 C 28.764639,23.155825 28.358381,23.605985 27.997455,24.098224 L 22.261704,22.860657 L 21.171835,25.85506 L 26.383053,28.546433 C 26.345041,29.15335 26.371127,29.757063 26.462276,30.347027 L 21.529356,33.529646 L 22.876017,36.417576 L 28.467631,34.636635 C 28.860985,35.083784 29.30817,35.486438 29.796979,35.845816 L 28.557011,41.594545 L 31.549365,42.683675 z M 30.640051,27.575631 C 31.470788,25.293193 33.997434,24.114999 36.279878,24.945738 C 38.562313,25.776487 39.740507,28.303122 38.909768,30.585564 C 38.079027,32.868003 35.55238,34.046198 33.269942,33.215461 C 30.987496,32.384725 29.809314,29.858074 30.640051,27.575631 z "
     style="fill:&fill_color;;fill-opacity:1.0000000;fill-rule:evenodd;stroke:&stroke_color;;stroke-width:2.1250000;stroke-linecap:round;stroke-linejoin:round;stroke-miterlimit:4.0000000;stroke-opacity:1.0000000;"/>
</svg>